<?xml version="1.0" encoding="UTF-8" standalone="no"?>
<!-- Created with Inkscape (http://www.inkscape.org/) -->

<svg
   version="1.1"
   id="svg1"
   width="160.42825"
   height="159.32655"
   viewBox="0 0 160.42825 159.32655"
   sodipodi:docname="logo.svg"
   inkscape:version="1.3.2 (091e20ef0f, 2023-11-25, custom)"
   xmlns:inkscape="http://www.inkscape.org/namespaces/inkscape"
   xmlns:sodipodi="http://sodipodi.sourceforge.net/DTD/sodipodi-0.dtd"
   xmlns="http://www.w3.org/2000/svg"
   xmlns:svg="http://www.w3.org/2000/svg">
   <style>
   path {
      fill: #2b7fbf;
   }
   </style>
  <defs
     id="defs1" />
  <sodipodi:namedview
     id="namedview1"
     pagecolor="#ffffff"
     bordercolor="#666666"
     borderopacity="1.0"
     inkscape:showpageshadow="2"
     inkscape:pageopacity="0.0"
     inkscape:pagecheckerboard="0"
     inkscape:deskcolor="#d1d1d1"
     inkscape:zoom="7.3730468"
     inkscape:cx="51.200001"
     inkscape:cy="131.22119"
     inkscape:window-width="1920"
     inkscape:window-height="997"
     inkscape:window-x="3840"
     inkscape:window-y="0"
     inkscape:window-maximized="1"
     inkscape:current-layer="g1" />
  <g
     inkscape:groupmode="layer"
     inkscape:label="Image"
     id="g1"
     transform="translate(-20.818576,-24.349047)">
    <path
       d="m 84.320001,182.35188 c -1.76,-0.4979 -4.064,-1.13933 -5.12,-1.42542 -3.047116,-0.82551 -6.663098,-2.05364 -7.36,-2.49974 -0.352,-0.22532 -1.216,-0.59369 -1.92,-0.8186 -2.527503,-0.80747 -4.830152,-2.04362 -6.56,-3.52165 -0.968,-0.82708 -2.12,-1.6928 -2.56,-1.9238 -0.44,-0.23101 -1.088,-0.72462 -1.44,-1.09691 -0.352,-0.37229 -1.338675,-1.08505 -2.192611,-1.58392 -0.853936,-0.49887 -2.322919,-1.57637 -3.264407,-2.39444 -0.941489,-0.81807 -2.133967,-1.8084 -2.649951,-2.20073 l -0.938154,-0.71333 -1.557439,0.50405 c -0.856591,0.27723 -2.011201,0.70623 -2.5658,0.95333 -1.019061,0.45405 -6.831638,0.65781 -6.831638,0.23949 0,-0.11539 0.338657,-0.65539 0.752571,-1.2 0.413915,-0.54462 0.99123,-1.4536 1.282922,-2.01997 0.291693,-0.56636 0.873583,-1.35836 1.29309,-1.76 0.419507,-0.40163 0.85226,-1.03018 0.961675,-1.39678 l 0.198935,-0.66654 -0.819654,-0.37346 c -0.450809,-0.2054 -1.154643,-0.37346 -1.564075,-0.37346 -1.06868,0 -5.369227,-1.1123 -6.32567,-1.63608 -5.95986,-3.26382 -5.351687,-4.3095 2.655616,-4.566 0.948524,-0.0304 1.906876,-0.16926 2.12967,-0.30861 l 0.405081,-0.25336 -0.565081,-0.97441 C 39.215127,149.39322 36.817993,147.2 36.331453,147.2 c -0.133448,0 -0.910617,-0.55746 -1.727043,-1.2388 -0.816425,-0.68134 -2.017647,-1.59912 -2.669382,-2.0395 C 30.330231,142.83733 27.84,140.69574 27.84,140.4 c 0,-0.132 1.512,-0.24 3.36,-0.24 3.874563,0 3.897177,-0.0291 1.793413,-2.30512 -1.601477,-2.13721 -5.667116,-5.06136 -4.903794,-8.00974 0.332849,-1.28566 1.331352,-1.83415 3.350381,-1.84042 1.86294,-0.006 1.986603,0.33253 -1.054438,-2.88472 -5.126838,-5.36255 -7.861533,-12.31732 -9.240862,-19.52 -0.373675,-2.16203 -0.419761,-11.755838 -0.05755,-11.979698 0.113651,-0.07024 0.251356,-2.263543 0.306011,-4.874005 0.05868,-2.802669 0.301012,-5.598064 0.591771,-6.826296 0.270819,-1.144 0.546698,-2.512 0.613065,-3.04 0.148247,-1.179433 1.324434,-6.686323 1.708677,-8 0.154437,-0.528 0.381241,-1.464 0.50401,-2.08 0.122769,-0.616 0.330325,-1.264 0.461236,-1.44 0.130912,-0.176 0.32902,-0.79968 0.44024,-1.385956 0.111221,-0.586275 0.47488,-1.412587 0.808132,-1.836248 0.333252,-0.423661 0.703723,-1.42254 0.823269,-2.219731 0.193116,-1.287793 1.588542,-4.85298 3.394686,-8.673115 0.341963,-0.723278 0.62175,-1.542779 0.62175,-1.821115 0,-0.278335 0.146182,-0.59641 0.324849,-0.706832 0.361042,-0.223136 1.075629,-1.809094 1.800935,-3.997003 0.262553,-0.792 0.68366,-1.893763 0.935793,-2.448362 0.252133,-0.554598 0.458424,-1.092146 0.458424,-1.194549 0,-0.467222 3.815332,-8.257142 4.171484,-8.517089 0.120568,-0.088 0.442305,-0.595705 0.714971,-1.128234 0.272665,-0.532528 0.995718,-1.514064 1.606783,-2.181191 l 1.111027,-1.212959 3.317867,1.643206 c 3.806742,1.885325 4.744592,2.391277 6.509605,3.511807 2.854608,1.812266 8.165733,6.029793 9.971421,7.918237 0.551738,0.577024 1.105583,1.049134 1.230767,1.049134 0.857297,0 11.784635,11.965804 14.319193,15.68 0.300255,0.44 1.003792,1.448 1.563414,2.24 1.933972,2.737034 3.670229,6.415528 4.247627,8.99917 0.27009,1.208555 0.652906,1.24083 14.717726,1.24083 h 12.521887 l 0.43025,-1.04 c 1.91245,-4.622751 6.23536,-12.382668 8.27419,-14.852724 0.31449,-0.380998 1.21979,-1.657919 2.01179,-2.837604 1.50887,-2.247453 6.86703,-8.987712 8.29077,-10.429307 0.45608,-0.4618 1.47723,-1.611207 2.26923,-2.554239 0.792,-0.943033 2.16,-2.395427 3.04,-3.227545 0.88,-0.832117 2.104,-2.002981 2.72,-2.601919 0.616,-0.598939 2.128,-1.899686 3.36,-2.890549 1.232,-0.990863 3.22808,-2.702592 4.43574,-3.803842 1.20765,-1.101249 2.63301,-2.398272 3.16746,-2.882272 1.30657,-1.183241 2.19279,-1.134922 2.93454,0.16 0.32765,0.572 1.124,1.832 1.76968,2.8 0.64567,0.968 1.27454,1.976 1.39748,2.24 0.12295,0.264 0.66028,1.2 1.19408,2.08 0.5338,0.88 1.36279,2.392001 1.8422,3.360001 0.4794,0.968 1.34367,2.444 1.9206,3.28 1.36254,2.774435 3.28407,5.316805 4.53822,8.217531 0,0.12568 0.72,1.27367 1.6,2.551088 0.88,1.277419 1.6,2.457014 1.6,2.621322 2.48446,4.14867 4.51926,8.562632 6.4,13.014496 0.64966,1.838449 1.41834,3.622028 2.11661,5.451879 1.97982,5.27237 4.02444,11.319408 4.0316,13.823684 0.001,0.44 0.11204,0.944 0.24619,1.12 0.2697,0.353841 0.71237,5.236795 0.76876,8.48 0.0706,4.060262 -0.8911,10.999839 -1.73998,12.555659 -0.16675,0.30561 -0.30318,1.42857 -0.30318,2.49546 0,1.28492 -0.21606,2.387 -0.64,3.26445 -0.352,0.72855 -0.64,1.48783 -0.64,1.68728 0,0.71102 -3.6263,7.68669 -4.26312,8.20068 -2.15617,1.74028 0.0197,2.18636 5.15954,1.05774 l 0.73642,-0.1617 -0.22411,1.21021 c -0.5738,3.09866 -2.86044,7.73935 -4.42296,8.97631 -0.38483,0.30465 -0.95773,0.99249 -1.27311,1.52854 -0.31538,0.53605 -1.06374,1.31061 -1.66304,1.72125 -2.20286,1.50943 -1.44173,2.02566 2.90224,1.96844 l 3.30323,-0.0435 0.52844,0.52844 c 0.75214,0.75214 0.50663,1.42182 -0.78353,2.13723 -1.40116,1.17756 -2.69412,1.67096 -4.13983,2.77502 -0.60491,0.517 -1.98919,1.46011 -3.07618,2.0958 -1.08698,0.63569 -2.12873,1.49027 -2.31498,1.89905 l -0.33864,0.74324 2.55528,1.00021 c 1.4054,0.55012 2.82698,1.00021 3.15907,1.00021 0.33208,0 1.32248,0.15414 2.20089,0.34252 l 1.59711,0.34252 -0.22136,0.54771 c -0.70349,1.74065 -2.28923,2.74799 -4.86136,3.08817 -2.5815,0.34141 -3.50659,0.78447 -4.34328,0.85088 -6.75111,0.53582 0.40844,6.01411 1.50368,7.91486 l -0.049,0.84422 c -0.0237,0.40895 -0.68629,0.46912 -0.7259,0.46912 -0.35743,0 -5.16293,-2.29607 -6.211,-2.96762 l -1.34555,-0.86216 -0.97445,0.19489 c -1.83148,0.96307 -10.93719,7.28972 -16.75466,8.90728 -1.02311,0.28448 -3.97511,1.58377 -6.56,2.88731 -12.05163,7.06193 -25.004,9.40373 -38.779802,9.56064 -4.766404,0.14922 -9.344944,0.4858 -13.919997,-0.80848 z m 27.677569,-1.71456 c 3.06371,-0.79965 6.7901,-2.53501 9.60243,-4.4718 2.90719,-2.00212 2.94147,-2.0356 4.62034,-4.51186 0.60645,-0.89449 1.56466,-2.11849 2.12936,-2.72 0.56469,-0.60151 1.25705,-1.59766 1.53857,-2.21366 0.28152,-0.616 1.0561,-2.00986 1.72128,-3.09747 0.66518,-1.08761 1.49383,-2.80411 1.84143,-3.81443 0.3476,-1.01033 0.97294,-2.42446 1.38965,-3.14253 0.41671,-0.71806 0.99191,-2.25025 1.27822,-3.40487 0.28632,-1.15461 0.79498,-2.66725 1.13037,-3.36141 0.49413,-1.02275 1.20069,-3.22187 1.74116,-5.41929 0.73371,-2.98303 4.39303,-8.97241 7.38394,-12.08562 0.80612,-0.83909 1.46665,-1.63109 1.46783,-1.76 0.0227,-2.92405 8.25103,-4.74493 11.01551,-12.55438 0.77837,-3.92349 0.92545,-14.05389 0.23938,-16.48823 -2.52064,-6.140272 -7.94977,-3.667616 -12.47679,-2.254747 -0.84867,2.766387 -0.56542,5.764657 -0.70025,8.630387 l -0.35329,6.75545 c -0.64814,2.58262 -1.3114,4.95879 -7.5873,4.97502 -3.8998,0.0814 -5.94549,-0.86104 -7.0107,-4.07171 -0.76755,-2.31348 -0.77281,-8.17461 -0.65416,-9.4094 l 0.1485,-1.54546 -0.47208,-0.18115 c -8.07777,0.80851 -11.79012,6.00917 -11.85692,13.47303 l -0.1183,5.16315 6.83213,0.13899 c 4.72927,-0.62769 47.98183,-2.20604 29.71493,-0.72727 -2.41648,0.19562 -15.805,0.51866 -16.7268,0.7125 -1.48427,0.31212 -20.00965,0.91217 -20.3837,0.66024 -0.50059,-4.54185 0.49365,-12.9007 1.8191,-14.56006 1.49902,-1.87665 1.80075,-2.55058 3.06163,-3.27023 1.06652,-0.60872 1.86545,-0.98491 2.87045,-1.41865 0.74608,-0.34 2.25651,-0.86298 3.35651,-1.16217 0.42472,-0.20904 6.89472,-2.51624 7.99792,-2.8927 2.86442,-0.977473 1.08629,-0.41758 7.83507,-2.544246 1.77643,-0.559787 3.71901,-0.941981 4.24701,-1.097708 9.40805,-3.395904 12.30573,4.150774 12.1724,11.675004 -0.0981,5.53394 -0.20375,6.44449 -0.99149,8.54614 -0.60482,1.61362 -0.0144,1.91494 1.08731,0.55492 1.5242,-1.88156 4.71002,-4.76745 5.5959,-5.06904 0.20676,-0.0704 0.44792,-0.21978 0.53592,-0.33197 0.37143,-0.47356 4.76984,-3.49153 6.28477,-4.31229 2.41637,-1.30916 4.77913,-3.4726 4.42003,-4.04716 -1.34702,-3.20963 -2.27333,-6.930176 -5.4604,-8.818141 -1.40929,-0.803028 -2.001,-0.90959 -3.39929,-2.282458 -0.61017,-0.66 -2.10293,-1.704 -3.31723,-2.32 -1.21431,-0.616 -2.27983,-1.19572 -2.36783,-1.288268 -1.29512,-1.362053 -3.85453,-2.916091 -9.6,-5.828984 -3.88328,-1.968786 -5.67885,-2.753761 -9.28,-4.056977 -1.84707,-0.668433 -8.31244,-2.300739 -10.88,-2.746864 -3.32157,-0.577137 -7.8487,-1.3972 -9.76,-1.767966 -0.88,-0.170708 -4.048,-0.388956 -7.04,-0.484995 -24.398336,-0.783153 -23.235058,-0.819243 -22.474981,0.697286 0.846632,1.689226 2.021481,7.973363 2.649493,14.171842 0.09669,0.95429 0.25565,1.864285 0.353253,2.02221 2.010665,3.253323 0.644827,19.226875 -2.264436,26.482715 -0.383143,1.25443 -0.796491,2.44617 -1.534313,3.51111 l 1.395493,-0.19051 c 4.64634,-1.3197 9.539091,-2.01004 14.290291,-0.43188 1.8236,0.47826 3.43001,1.24525 5.0252,2.22775 l -0.976,0.002 c -1.12079,-0.19404 -2.20809,-0.64943 -3.27903,-1.07579 -7.22237,-2.66678 -15.518583,-0.71398 -19.990623,5.46861 -1.139377,2.02636 -2.96306,4.64147 -4.027192,5.77487 -0.540164,0.57532 -1.09575,1.24383 -1.234635,1.48557 -0.672391,1.17037 -5.086175,5.9762 -10.171468,11.07493 -1.144578,1.1476 -2.081051,2.20121 -2.081051,2.34135 0,0.14014 -0.347649,0.7132 -0.772554,1.27345 -0.424905,0.56026 -1.171328,2.02665 -1.658719,3.25865 -0.48739,1.232 -1.14774,2.71238 -1.467445,3.28974 -1.330175,3.34837 -2.348721,6.82472 -3.179532,10.35386 -0.659344,2.11847 -0.771436,4.61278 -0.285841,6.36065 l 0.312341,1.12425 2.965875,1.40322 c 1.631231,0.77178 4.040147,1.681 5.353146,2.0205 1.312998,0.3395 2.652648,0.7593 2.976999,0.93288 0.908021,0.48596 6.850534,2.05993 9.35573,2.47802 2.889479,0.48222 4.242722,0.53568 15.197569,0.60037 l 9.11757,0.0538 z M 95.863498,162.71598 c -0.691077,-0.24168 -2.491077,-0.73939 -4,-1.10604 -1.508923,-0.36664 -3.463497,-0.88743 -4.343497,-1.15732 -0.88,-0.26988 -1.888,-0.48187 -2.24,-0.47107 -0.352,0.0108 -2.008,0.071 -3.68,0.13372 -1.97217,0.34368 -3.170515,0.0469 -4.85277,-0.81884 -2.114858,-1.39619 -2.115995,-1.00229 -3.226473,-2.9385 -0.21566,-0.61824 -0.691073,-1.29639 -0.781867,-1.79793 -0.152131,-0.84036 -0.18624,-2.05049 1.096926,-4.75456 0.426218,-0.89819 1.934552,-1.96544 2.777734,-1.96544 0.08476,0 -0.437617,0.8575 -1.16083,1.90555 -0.908632,1.31675 -1.310335,2.23135 -1.300055,2.96 0.02958,2.0968 0.668345,3.77445 1.437123,3.77445 0.17128,0 0.764759,0.324 1.31884,0.72 1.890691,1.35127 6.061417,1.85784 7.075376,0.85936 0.856017,-0.2953 1.649399,-0.65754 2.416,-1.17033 2.407553,-1.61043 4.52469,-2.64538 6.541215,-4.28855 0.53833,-0.50464 1.099241,-0.91819 1.246469,-0.91901 2.277245,-1.7409 4.994245,-2.8728 7.179991,-4.71589 l 1.3008,-1.20559 -0.18179,-4.27849 -0.3282,-5.09212 c -1.47501,-1.87859 -0.91743,-3.80327 -3.032405,-4.82932 -2.063193,9e-4 -3.222513,-0.64486 -4.007811,-2.34209 0.359238,-2.35051 1.096396,-2.09476 1.925608,-3.0689 1.410108,-1.38028 13.023788,-2.95458 15.477218,1.10073 1.01104,1.67117 -1.12158,3.46394 -4.00203,3.93295 l -1.08853,0.17724 c -0.5411,1.83284 -1.58235,3.74585 -2.62364,5.02407 -0.8909,1.09361 -0.665,9.65471 0.5479,10.03967 0.39351,0.1249 1.46751,0.78265 2.38667,1.46167 1.47135,0.99628 2.94633,2.04948 4.33281,3.17741 0.97841,0.87839 5.03261,3.81718 5.26597,3.81718 0.1025,0 0.52737,0.36795 0.94415,0.81767 0.41679,0.44972 1.56392,1.24172 2.54919,1.76 l 1.7914,0.94233 h 1.84582 c 6.15798,0 10.17439,-4.47142 8.66497,-7.65052 -0.69033,-1.45396 -1.01197,-1.76302 -1.8021,-2.58948 -1.20944,-1.24163 -2.12876,-1.92 -2.60195,-1.92 -1.32056,0 -0.77913,-1.10854 0.55008,-0.84803 1.62461,0.3184 0.74825,0.0428 2.39819,0.8916 3.64263,1.87384 4.24441,6.8852 2.61692,9.11243 -0.63338,0.92099 -1.36455,1.6067 -1.77843,1.66786 -3.49301,2.3246 -7.88271,4.62445 -11.86675,1.88757 l -2.04756,0.16436 c -1.49852,0.12028 -2.76574,0.50881 -4.72587,1.44895 -4.48049,2.14899 -5.54704,2.37168 -11.95831,2.49689 -3.456127,0.0675 -5.151786,-0.0293 -6.056502,-0.34566 z m 12.995582,-2.24338 c 2.07003,-0.79507 5.05146,-1.2203 6.69031,-2.76752 l 0.37191,-0.69492 -1.0426,-0.82508 c -0.57343,-0.45379 -1.48222,-1.29308 -2.01953,-1.86508 -2.57842,-2.74489 -8.06662,-7.37152 -13.034533,-3.55975 -0.62445,0.47913 -2.568451,1.60892 -4.32,2.51065 -5.537304,2.85071 -7.337964,4.70103 -5.344636,5.49203 0.484,0.19206 1.274193,0.55605 1.755984,0.80886 0.780819,0.40971 3.714025,0.84113 7.924016,1.16546 3.618429,0.27876 6.866979,0.18344 9.019079,-0.26465 z M 82.344048,124.18064 c 0.673225,-0.15625 1.42347,-0.54881 1.667211,-0.87236 l 0.443164,-0.58828 -0.07787,-5.92 -0.07787,-5.92 -0.565309,-1.055 c -0.951089,-1.77495 -1.552255,-2.27803 -4.328119,-3.62196 -1.84357,-0.89256 -2.912556,-1.23529 -3.44,-1.10291 l -0.765245,0.19206 -0.01882,1.19391 c -0.0418,2.65103 -0.277775,4.47328 -0.776204,5.9939 -0.288446,0.88 -0.692005,2.176 -0.896796,2.88 -0.204791,0.704 -0.771366,1.87608 -1.259055,2.60462 -1.100952,2.12139 -5.271781,2.9976 -7.307164,2.38778 -1.725844,-0.51707 -2.86048,-1.28228 -3.67456,-3.44261 -0.751091,-1.99318 -0.78685,-3.37176 -0.847809,-5.47724 -0.05744,-1.98401 0.285923,-5.22409 0.513668,-7.2 0.458148,-3.97487 0.493642,-3.87576 -1.573255,-4.393092 -0.704,-0.176206 -2.392152,-0.680168 -3.751449,-1.119916 -4.421902,-1.430534 -6.353723,-1.104895 -7.768671,1.309528 l -0.869497,1.48369 -0.153782,4.20362 -0.153782,4.20362 0.678535,4.4406 c 1.449238,9.48439 0.955884,9.00603 9.618646,9.32625 21.477987,0.79393 23.888794,0.84083 25.384047,0.49379 z m 97.342342,-23.16322 c 0.008,-0.20758 0.13354,-1.149355 0.27898,-2.092832 0.42602,-2.763674 -0.32772,-7.09763 -0.32772,-7.107012 -0.3647,-2.405259 -1.95742,-12.660484 -2.86165,-14.377575 -0.73072,-1.387629 -1.36299,-2.981619 -1.90396,-4.8 C 173.07285,66.592295 171.096,61.78732 169.42634,59.403544 169.1699,59.037273 168.96,58.553971 168.96,58.32954 c 0,-0.224432 -0.48739,-1.092391 -1.08309,-1.928798 -0.59569,-0.836408 -1.40001,-2.240741 -1.78736,-3.120741 -1.18806,-2.699055 -2.7691,-5.66142 -3.84271,-7.2 -0.30703,-0.44 -1.18034,-1.952 -1.94068,-3.36 -0.76035,-1.408 -1.71988,-2.971319 -2.13229,-3.474042 -0.8364,-1.019561 -2.40726,-4.05649 -3.28542,-6.351668 -0.54805,-1.432392 -1.0151,-2.152799 -2.92138,-4.506056 -0.54017,-0.587615 -0.89804,-1.263652 -1.19654,-1.988235 0.0878,1.16042 -2.61057,3.780504 -2.61057,5.232604 0,0.153768 0.9,1.202076 2,2.329573 1.1,1.127497 2.53834,2.861162 3.19632,3.85259 0.76056,0.986902 6.96738,9.669625 7.05778,9.865234 0.22193,0.480234 3.13935,5.089192 3.72259,6.623121 0.18174,0.669283 0.93119,2.224879 1.66543,3.456879 0.73424,1.232 1.80105,3.464 2.37069,4.96 1.8425,4.838854 2.76989,7.188131 3.06159,7.755658 0.15708,0.305612 0.2856,0.815837 0.2856,1.133834 0,0.317997 0.35958,1.818474 0.79906,3.334392 0.43948,1.515919 0.94568,3.885694 1.12489,5.266166 0.49056,3.778835 0.9555,6.410615 1.60232,9.06995 0.32106,1.32 0.58302,3.210887 0.58212,4.20197 l -0.002,1.80197 1.30662,2.150735 c 0.66031,1.332676 1.36691,2.554592 2.0566,3.751354 0.18108,0.69247 0.66775,0.57464 0.6964,-0.16861 z M 32.248245,97.543757 c 0.272273,-0.272273 0.324375,-1.709235 0.188544,-5.2 -0.213776,-5.493904 -0.03392,-6.289352 1.59706,-7.063303 1.327048,-0.629726 1.645279,-1.374739 2.118846,-4.960453 0.197578,-1.496 0.507216,-3.188 0.688086,-3.76 l 0.328853,-1.04 h 0.79622 c 0.437922,0 1.083959,0.153993 1.435639,0.342206 0.803865,0.430215 1.556018,-0.111426 1.522087,-1.096086 -0.013,-0.377366 0.14607,-1.55012 0.353497,-2.60612 0.207428,-1.056 0.42347,-2.64 0.480094,-3.52 0.324252,-5.039236 2.257033,-5.659521 3.988421,-1.28 1.312788,3.320681 1.967077,3.5431 3.44219,1.170141 0.529895,-0.852423 1.480807,-1.944471 2.113137,-2.426773 l 1.149692,-0.876912 0.96074,0.567523 c 0.528408,0.312138 1.420382,1.180976 1.982165,1.930752 1.583662,2.113609 1.866007,2.081132 5.130895,-0.590191 0.816425,-0.667997 1.708395,-1.21454 1.982155,-1.21454 0.273761,0 0.891446,-0.338646 1.372634,-0.752547 l 0.874888,-0.752547 -0.725968,-1.407453 c -0.399282,-0.774099 -1.684952,-2.828439 -2.857043,-4.565201 -1.172092,-1.736761 -2.7869,-4.184761 -3.588462,-5.44 C 54.421879,48.052571 47.608778,39.256081 46.568887,38.782275 l -0.800358,-0.364668 -0.644264,0.691537 c -0.354345,0.380345 -0.644264,0.827386 -0.644264,0.993425 0,0.16604 -0.324,0.822588 -0.72,1.458997 -0.753353,1.210709 -2.48,5.096252 -2.48,5.580843 0,0.154478 -0.216712,0.737556 -0.481583,1.295728 -0.26487,0.558173 -0.906702,2.307936 -1.426294,3.888362 -0.519591,1.580426 -1.391201,4.097502 -1.93691,5.593502 -2.205447,6.045987 -3.290626,9.273361 -4.142501,12.32 -0.492116,1.76 -1.058575,3.611367 -1.258798,4.11415 -0.200223,0.502782 -0.734995,2.734782 -1.188383,4.96 l -0.824342,4.04585 0.138233,6.72 c 0.160393,7.797346 0.50913,9.043448 2.088822,7.463756 z M 171.02834,91.120001 c -0.11814,-0.396 -0.54141,-1.296 -0.9406,-2 -0.39919,-0.704 -0.89021,-2.239144 -1.09116,-3.411431 -0.20095,-1.172287 -0.58397,-2.654626 -0.85115,-3.294086 -0.26718,-0.63946 -0.40788,-1.288707 -0.31267,-1.44277 -2.02802,-1.540412 -3.83666,-1.888074 -5.11248,-4.698408 -0.31682,-0.607456 -0.47699,-1.864367 -0.47831,-3.753305 l -0.002,-2.84 -1.04,0.254526 c -2.65023,0.648609 -3.7453,0.206616 -3.7551,-1.515641 -0.003,-0.473613 -0.13567,-0.941938 -0.29551,-1.040723 -0.15984,-0.09879 -0.47506,-0.899284 -0.7005,-1.778886 -0.85474,-2.262277 -1.29488,-4.535774 -2.46575,-6.719276 -0.38544,-0.616 -0.70133,-1.227049 -0.70199,-1.357887 -0.002,-0.328452 -2.67718,1.70438 -4.8012,3.64789 -2.39812,2.194322 -2.2917,2.136037 -3.27613,1.794263 -0.6183,-0.214664 -0.97947,-0.648492 -1.22731,-1.474221 -0.60149,-2.003983 -2.85656,-3.55506 -2.85656,-1.964792 0,0.137835 -0.96514,1.16504 -2.14476,2.282678 -1.17962,1.117638 -2.50769,2.428069 -2.95126,2.912069 -1.12176,1.224002 -1.92689,1.106803 -4.00048,-0.582339 -2.00574,-1.633859 -2.7552,-1.70336 -3.17628,-0.294552 -0.15731,0.52629 -0.55628,1.548663 -0.88661,2.271941 -0.91202,2.490245 -1.81974,5.019864 -3.06663,7.378122 0.20606,0.333412 0.83561,0.481714 7.26602,1.711647 6.07332,1.161633 9.99189,2.182949 11.04,2.877413 0.176,0.116615 1.12581,0.385181 2.1107,0.596813 1.94645,0.418256 5.6818,1.955081 7.9693,3.278796 0.792,0.458308 2.3852,1.279848 3.54044,1.825643 1.15524,0.545795 3.23202,1.753791 4.61508,2.684435 1.38305,0.930645 2.7625,1.841703 3.06543,2.024575 0.30294,0.182871 0.74615,0.488105 0.98492,0.678296 0.23877,0.190192 0.99372,0.526202 1.67766,0.746689 0.68394,0.220487 1.74803,0.743253 2.36465,1.161703 1.40002,0.950075 1.77445,0.960263 1.50016,0.04082 z M 123.96526,72.313525 c 0.28311,-0.707561 0.51474,-1.442068 0.51474,-1.632236 0,-0.190169 0.72,-1.770586 1.6,-3.512038 0.88,-1.741453 1.6,-3.385214 1.6,-3.652803 0,-0.777084 0.77229,-3.036447 1.03792,-3.036447 0.13314,0 0.24208,-0.274711 0.24208,-0.610468 0,-0.756945 1.59712,-3.937383 2.15202,-4.285433 0.22439,-0.140745 0.40798,-0.469812 0.40798,-0.731259 0,-0.261446 0.23819,-0.838883 0.52932,-1.283193 l 0.52931,-0.807835 0.26579,0.419094 c 0.18079,0.285071 0.26735,0.153537 0.27068,-0.41131 0.003,-0.456722 0.2929,-1.091041 0.6449,-1.409596 0.352,-0.318556 0.64,-0.750556 0.64,-0.96 0,-0.209445 0.29697,-0.649561 0.65993,-0.978037 0.36296,-0.328475 0.97913,-1.250794 1.36927,-2.049596 0.92822,-1.900556 2.23144,-3.91195 2.88728,-4.456247 0.28794,-0.238967 0.52352,-0.610455 0.52352,-0.82553 0,-0.215075 0.3602,-0.809443 0.80044,-1.320818 0.44024,-0.511375 1.03872,-1.433772 1.32995,-2.049772 0.29123,-0.616 0.89648,-1.696 1.345,-2.4 0.44852,-0.704 1.05347,-1.712 1.34434,-2.24 1.41753,-2.57323 2.21418,-3.792331 4.01883,-6.149944 l 1.95856,-2.558684 -1.54634,1.018384 c -0.85048,0.560111 -2.87976,2.286636 -4.5095,3.836722 -1.62974,1.550086 -3.50724,3.17839 -4.17222,3.618454 -0.66498,0.440063 -1.20906,0.919152 -1.20906,1.064641 0,0.40199 -1.69811,1.890427 -2.15673,1.890427 -0.2218,0 -0.40327,0.216 -0.40327,0.48 0,0.264 -0.216,0.48 -0.48,0.48 -0.264,0 -0.48,0.124183 -0.48,0.275964 0,0.15178 -1.58761,1.91578 -3.52803,3.92 -1.94041,2.004219 -4.30687,4.652036 -5.2588,5.884036 -0.95193,1.232 -2.17779,2.744 -2.72414,3.36 -0.97858,1.103332 -9.05177,12.483454 -10.99307,18.082273 -0.42675,1.23075 -0.87682,2.478003 -1.00017,2.771673 l -0.22427,0.533945 1.70424,0.180929 c 0.93733,0.09951 3.33387,0.240859 5.32563,0.314107 1.99176,0.07325 3.70776,0.219555 3.81333,0.325126 0.4026,0.402602 0.67247,0.150256 1.17054,-1.094529 z"
       id="path1"
       sodipodi:nodetypes="cssssssssscssssssscssssscsssssssscssssssssssssssssssssscsssssssscssssssssssssssssssssscsssssssscssssscssssscssscssscssscssssscssssssssssscsscsccssccccssssssssssssssssscssssssssssssscsccccsssssssssscsssssccsssscsssssssssssscscccsccsscssssssscsssssssscssssssscsssssssssccccssscssssssssssscccsssscsssscsssssssscssssssssssssccssccscssscsssssssscssssscsssscsssssssssscsscsssscscscssscssssssssssssssssssssccssssssssscscssssssssscscssssssssssssscsssss" />
    <path
       d="m 84.320001,182.35188 c -15.834136,-3.24146 -17.45288,-5.59296 -33.066969,-17.46521 l -0.938154,-0.71333 -1.557439,0.50405 c -0.856591,0.27723 -2.011201,0.70623 -2.5658,0.95333 -1.019061,0.45405 -6.831638,0.65781 -6.831638,0.23949 0,-0.11539 0.338657,-0.65539 0.752571,-1.2 0.900562,-1.90417 2.566783,-3.35173 3.537687,-5.17675 l 0.198935,-0.66654 -0.819654,-0.37346 c -0.450809,-0.2054 -1.154643,-0.37346 -1.564075,-0.37346 -1.06868,0 -5.369227,-1.1123 -6.32567,-1.63608 -5.95986,-3.26382 -5.351687,-4.3095 2.655616,-4.566 0.948524,-0.0304 1.906876,-0.16926 2.12967,-0.30861 l 0.405081,-0.25336 -0.565081,-0.97441 C 39.215127,149.39322 36.817993,147.2 36.331453,147.2 c -0.133448,0 -0.910617,-0.55746 -1.727043,-1.2388 -0.816425,-0.68134 -2.017647,-1.59912 -2.669382,-2.0395 C 30.330231,142.83733 27.84,140.69574 27.84,140.4 c 0,-0.132 1.274674,-0.70536 3.122674,-0.70536 3.874563,0 3.673898,0.78819 2.030739,-1.83976 -3.572487,-5.71358 -7.167722,-7.87794 -1.553413,-9.85016 1.86294,-0.006 1.986603,0.33253 -1.054438,-2.88472 -10.055228,-10.14707 -10.332934,-23.46488 -8.992401,-36.373703 1.943842,-18.718472 8.39526,-37.879777 17.658321,-54.186296 0.120568,-0.088 0.442305,-0.595705 0.714971,-1.128234 0.272665,-0.532528 0.995718,-1.514064 1.606783,-2.181191 l 1.111027,-1.212959 3.317867,1.643206 c 3.806742,1.885325 4.744592,2.391277 6.509605,3.511807 2.854608,1.812266 8.165733,6.029793 9.971421,7.918237 0.551738,0.577024 1.105583,1.049134 1.230767,1.049134 0.857297,0 11.784635,11.965804 14.319193,15.68 0.300255,0.44 1.003792,1.448 1.563414,2.24 1.933972,2.737034 3.670229,6.415528 4.247627,8.99917 0.27009,1.208555 0.652906,1.24083 14.717726,1.24083 h 12.521887 l 0.43025,-1.04 c 1.91245,-4.622751 6.23536,-12.382668 8.27419,-14.852724 0.31449,-0.380998 1.21979,-1.657919 2.01179,-2.837604 1.50887,-2.247453 6.86703,-8.987712 8.29077,-10.429307 0.45608,-0.4618 1.47723,-1.611207 2.26923,-2.554239 0.792,-0.943033 2.16,-2.395427 3.04,-3.227545 0.88,-0.832117 2.104,-2.002981 2.72,-2.601919 0.616,-0.598939 2.128,-1.899686 3.36,-2.890549 1.232,-0.990863 3.22808,-2.702592 4.43574,-3.803842 1.20765,-1.101249 2.63301,-2.398272 3.16746,-2.882272 1.30657,-1.183241 2.19279,-1.134922 2.93454,0.16 0.32765,0.572 1.124,1.832 1.76968,2.8 0.64567,0.968 1.27454,1.976 1.39748,2.24 0.12295,0.264 0.66028,1.2 1.19408,2.08 0.5338,0.88 1.36279,2.392001 1.8422,3.360001 0.4794,0.968 1.34367,2.444 1.9206,3.28 1.36254,2.774435 3.28407,5.316805 4.53822,8.217531 0,0.12568 0.72,1.27367 1.6,2.551088 0.88,1.277419 1.6,2.457014 1.6,2.621322 2.48446,4.14867 4.51926,8.562632 6.4,13.014496 0.64966,1.838449 1.41834,3.622028 2.11661,5.451879 1.97982,5.27237 4.02444,11.319408 4.0316,13.823684 0.001,0.44 0.11204,0.944 0.24619,1.12 0.2697,0.353841 0.71237,5.236795 0.76876,8.48 0.0706,4.060262 -0.8911,10.999839 -1.73998,12.555659 -0.16675,0.30561 -0.30318,1.42857 -0.30318,2.49546 0,1.28492 -0.21606,2.387 -0.64,3.26445 -0.352,0.72855 -0.64,1.48783 -0.64,1.68728 0,0.71102 -3.6263,7.68669 -4.26312,8.20068 -2.15617,1.74028 0.0197,2.18636 5.15954,1.05774 l 0.73642,-0.1617 -0.22411,1.21021 c -0.5738,3.09866 -2.86044,7.73935 -4.42296,8.97631 -0.38483,0.30465 -0.95773,0.99249 -1.27311,1.52854 -0.31538,0.53605 -1.06374,1.31061 -1.66304,1.72125 -2.20286,1.50943 -1.44173,2.02566 2.90224,1.96844 l 3.30323,-0.0435 0.52844,0.52844 c 0.75214,0.75214 0.50663,1.42182 -0.78353,2.13723 -0.0842,0.0684 -6.46824,4.43351 -7.21601,4.87082 -1.08698,0.63569 -2.12873,1.49027 -2.31498,1.89905 l -0.33864,0.74324 2.55528,1.00021 c 1.4054,0.55012 2.82698,1.00021 3.15907,1.00021 0.33208,0 1.32248,0.15414 2.20089,0.34252 l 1.59711,0.34252 -0.22136,0.54771 c -3.13084,7.74662 -13.30142,0.70978 -10.98699,6.49916 0.6456,1.61492 2.75402,3.66526 3.28599,5.35475 l -0.049,0.84422 c -0.0237,0.40895 -0.68629,0.46912 -0.7259,0.46912 -2.64902,-0.99498 -5.17515,-2.3039 -7.55655,-3.82978 -23.21604,13.38042 -49.83024,26.30138 -76.988909,20.74164 z m 50.520629,-25.68631 c 0.30903,-0.77056 0.99191,-2.25025 1.27822,-3.40487 6.64578,-26.79967 19.81362,-27.69706 22.73881,-35.1807 1.4562,-3.72547 0.92545,-14.05389 0.23938,-16.48823 -2.52064,-6.140272 -7.94977,-3.667616 -12.47679,-2.254747 -0.84867,2.766387 -0.56542,5.764657 -0.70025,8.630387 l -0.35329,6.75545 c -0.64814,2.58262 -1.3114,4.95879 -7.5873,4.97502 -8.19958,-0.83023 -4.26145,-13.77757 -7.98844,-15.20772 -8.07777,0.80851 -11.79012,6.00917 -11.85692,13.47303 l 1.13736,-8.61245 c 1.49902,-1.87665 1.80075,-2.55058 3.06163,-3.27023 1.06652,-0.60872 1.86545,-0.98491 2.87045,-1.41865 0.74608,-0.34 2.25651,-0.86298 3.35651,-1.16217 0.42472,-0.20904 6.89472,-2.51624 7.99792,-2.8927 2.86442,-0.977473 1.08629,-0.41758 7.83507,-2.544246 1.77643,-0.559787 3.71901,-0.941981 4.24701,-1.097708 17.13129,-5.649953 11.39564,19.648254 11.18091,20.221144 -0.60482,1.61362 -0.0144,1.91494 1.08731,0.55492 1.5242,-1.88156 4.71002,-4.76745 5.5959,-5.06904 0.20676,-0.0704 0.44792,-0.21978 0.53592,-0.33197 0.37143,-0.47356 4.76984,-3.49153 6.28477,-4.31229 2.41637,-1.30916 4.77913,-3.4726 4.42003,-4.04716 -1.89947,-5.721608 -6.41065,-9.992851 -12.17692,-13.420599 -1.21431,-0.616 -2.27983,-1.19572 -2.36783,-1.288268 -1.29512,-1.362053 -3.85453,-2.916091 -9.6,-5.828984 -3.88328,-1.968786 -5.67885,-2.753761 -9.28,-4.056977 -1.84707,-0.668433 -8.31244,-2.300739 -10.88,-2.746864 -3.32157,-0.577137 -7.8487,-1.3972 -9.76,-1.767966 -0.88,-0.170708 -4.048,-0.388956 -7.04,-0.484995 -24.398336,-0.783153 -22.966159,-0.926389 -22.474981,0.697286 3.090806,10.217199 7.672851,24.278275 0.73831,42.676767 -0.462599,1.22735 -0.796491,2.44617 -1.534313,3.51111 l 1.395493,-0.19051 c 4.64634,-1.3197 9.539091,-2.01004 14.290291,-0.43188 1.8236,0.47826 3.43001,1.24525 5.0252,2.22775 l -0.976,0.002 c -1.12079,-0.19404 -2.20809,-0.64943 -3.27903,-1.07579 -7.22237,-2.66678 -15.518583,-0.71398 -19.990623,5.46861 -6.038635,10.7396 -18.028736,15.47693 -24.592596,38.85242 -0.833984,2.48704 -0.660284,5.01287 0.0265,7.4849 6.468615,3.06044 53.332459,23.54994 69.572289,-16.94308 z m -38.977132,6.05041 c -0.691077,-0.24168 -2.491077,-0.73939 -4,-1.10604 -1.508923,-0.36664 -3.463497,-0.88743 -4.343497,-1.15732 -0.88,-0.26988 -1.888,-0.48187 -2.24,-0.47107 -0.352,0.0108 -2.008,0.071 -3.68,0.13372 -1.97217,0.34368 -3.170515,0.0469 -4.85277,-0.81884 -2.114858,-1.39619 -2.115995,-1.00229 -3.226473,-2.9385 -0.21566,-0.61824 -0.691073,-1.29639 -0.781867,-1.79793 -0.152131,-0.84036 -0.18624,-2.05049 1.096926,-4.75456 0.426218,-0.89819 1.934552,-1.96544 2.777734,-1.96544 0.08476,0 -0.437617,0.8575 -1.16083,1.90555 -0.908632,1.31675 -1.310335,2.23135 -1.300055,2.96 0.02958,2.0968 0.668345,3.77445 1.437123,3.77445 0.17128,0 0.764759,0.324 1.31884,0.72 1.890691,1.35127 6.061417,1.85784 7.075376,0.85936 0.856017,-0.2953 1.649399,-0.65754 2.416,-1.17033 2.407553,-1.61043 4.52469,-2.64538 6.541215,-4.28855 0.53833,-0.50464 1.099241,-0.91819 1.246469,-0.91901 2.277245,-1.7409 4.994245,-2.8728 7.179991,-4.71589 l 1.3008,-1.20559 -0.18179,-4.27849 -0.3282,-5.09212 c -1.47501,-1.87859 -0.91743,-3.80327 -3.032405,-4.82932 -2.063193,9e-4 -3.222513,-0.64486 -4.007811,-2.34209 0.359238,-2.35051 1.096396,-2.09476 1.925608,-3.0689 1.410108,-1.38028 13.023788,-2.95458 15.477218,1.10073 1.01104,1.67117 -1.12158,3.46394 -4.00203,3.93295 l -1.08853,0.17724 c -0.5411,1.83284 -1.58235,3.74585 -2.62364,5.02407 -0.8909,1.09361 -0.665,9.65471 0.5479,10.03967 0.39351,0.1249 1.46751,0.78265 2.38667,1.46167 1.47135,0.99628 2.94633,2.04948 4.33281,3.17741 0.97841,0.87839 5.03261,3.81718 5.26597,3.81718 0.1025,0 0.52737,0.36795 0.94415,0.81767 0.41679,0.44972 1.56392,1.24172 2.54919,1.76 l 1.7914,0.94233 h 1.84582 c 6.15798,0 10.17439,-4.47142 8.66497,-7.65052 -0.69033,-1.45396 -1.01197,-1.76302 -1.8021,-2.58948 -1.20944,-1.24163 -2.12876,-1.92 -2.60195,-1.92 -1.32056,0 -0.77913,-1.10854 0.55008,-0.84803 1.62461,0.3184 0.74825,0.0428 2.39819,0.8916 3.64263,1.87384 4.24441,6.8852 2.61692,9.11243 -0.63338,0.92099 -1.36455,1.6067 -1.77843,1.66786 -3.49301,2.3246 -7.88271,4.62445 -11.86675,1.88757 l -2.04756,0.16436 c -1.49852,0.12028 -2.76574,0.50881 -4.72587,1.44895 -4.48049,2.14899 -5.54704,2.37168 -11.95831,2.49689 -3.456127,0.0675 -5.151786,-0.0293 -6.056502,-0.34566 z m 12.995582,-2.24338 c 2.07003,-0.79507 5.05146,-1.2203 6.69031,-2.76752 l 0.37191,-0.69492 -1.0426,-0.82508 c -0.57343,-0.45379 -1.48222,-1.29308 -2.01953,-1.86508 -2.57842,-2.74489 -8.06662,-7.37152 -13.034533,-3.55975 -0.62445,0.47913 -2.568451,1.60892 -4.32,2.51065 -5.537304,2.85071 -7.337964,4.70103 -5.344636,5.49203 0.484,0.19206 1.274193,0.55605 1.755984,0.80886 0.780819,0.40971 3.714025,0.84113 7.924016,1.16546 3.618429,0.27876 6.866979,0.18344 9.019079,-0.26465 z M 82.344048,124.18064 c 0.673225,-0.15625 1.42347,-0.54881 1.667211,-0.87236 l 0.443164,-0.58828 -0.07787,-5.92 -0.07787,-5.92 -0.565309,-1.055 c -0.951089,-1.77495 -1.552255,-2.27803 -4.328119,-3.62196 -1.84357,-0.89256 -2.912556,-1.23529 -3.44,-1.10291 -0.779941,4.4058 -0.64075,10.23063 -3.368443,13.30759 -1.512113,1.70573 -4.352398,2.38055 -7.654841,1.94468 -1.786148,-0.23574 -2.86048,-1.28228 -3.67456,-3.44261 -0.751091,-1.99318 -0.78685,-3.37176 -0.847809,-5.47724 -0.05744,-1.98401 0.285923,-5.22409 0.513668,-7.2 0.458148,-3.97487 0.493642,-3.87576 -1.573255,-4.393092 -0.704,-0.176206 -2.392152,-0.680168 -3.751449,-1.119916 -4.421902,-1.430534 -6.353723,-1.104895 -7.768671,1.309528 l -0.869497,1.48369 -0.153782,4.20362 -0.153782,4.20362 0.678535,4.4406 c 1.449238,9.48439 0.955884,9.00603 9.618646,9.32625 21.477987,0.79393 23.888794,0.84083 25.384047,0.49379 z m 97.342342,-23.16322 c 0.008,-0.20758 0.13354,-1.149355 0.27898,-2.092832 0.42602,-2.763674 -0.32772,-7.09763 -0.32772,-7.107012 -0.3647,-2.405259 -1.95742,-12.660484 -2.86165,-14.377575 -0.73072,-1.387629 -1.36299,-2.981619 -1.90396,-4.8 C 173.07285,66.592295 171.096,61.78732 169.42634,59.403544 169.1699,59.037273 168.96,58.553971 168.96,58.32954 c 0,-0.224432 -0.48739,-1.092391 -1.08309,-1.928798 -0.59569,-0.836408 -1.40001,-2.240741 -1.78736,-3.120741 -1.18806,-2.699055 -2.7691,-5.66142 -3.84271,-7.2 -0.30703,-0.44 -1.18034,-1.952 -1.94068,-3.36 -0.76035,-1.408 -1.71988,-2.971319 -2.13229,-3.474042 -0.8364,-1.019561 -2.40726,-4.05649 -3.28542,-6.351668 -0.54805,-1.432392 -1.0151,-2.152799 -2.92138,-4.506056 -0.54017,-0.587615 -0.89804,-1.263652 -1.19654,-1.988235 -1.60208,2.320861 -0.81908,1.559569 -2.61057,5.232604 -0.0674,0.138205 0.9,1.202076 2,2.329573 1.1,1.127497 2.53834,2.861162 3.19632,3.85259 0.76056,0.986902 6.96738,9.669625 7.05778,9.865234 0.22193,0.480234 3.13935,5.089192 3.72259,6.623121 0.18174,0.669283 0.93119,2.224879 1.66543,3.456879 0.73424,1.232 1.80105,3.464 2.37069,4.96 1.8425,4.838854 2.76989,7.188131 3.06159,7.755658 0.15708,0.305612 0.2856,0.815837 0.2856,1.133834 0,0.317997 0.35958,1.818474 0.79906,3.334392 0.43948,1.515919 0.94568,3.885694 1.12489,5.266166 0.49056,3.778835 0.9555,6.410615 1.60232,9.06995 0.32106,1.32 0.58302,3.210887 0.58212,4.20197 l -0.002,1.80197 1.30662,2.150735 c 0.66031,1.332676 1.36691,2.554592 2.0566,3.751354 0.18108,0.69247 0.66775,0.57464 0.6964,-0.16861 z M 32.248245,97.543757 c 0.272273,-0.272273 0.324375,-1.709235 0.188544,-5.2 -0.213776,-5.493904 -0.03392,-6.289352 1.59706,-7.063303 1.327048,-0.629726 1.645279,-1.374739 2.118846,-4.960453 0.197578,-1.496 0.507216,-3.188 0.688086,-3.76 l 0.328853,-1.04 h 0.79622 c 0.437922,0 1.083959,0.153993 1.435639,0.342206 0.803865,0.430215 1.556018,-0.111426 1.522087,-1.096086 -0.013,-0.377366 0.14607,-1.55012 0.353497,-2.60612 0.207428,-1.056 0.42347,-2.64 0.480094,-3.52 0.324252,-5.039236 2.257033,-5.659521 3.988421,-1.28 1.312788,3.320681 1.967077,3.5431 3.44219,1.170141 0.529895,-0.852423 1.480807,-1.944471 2.113137,-2.426773 l 1.149692,-0.876912 0.96074,0.567523 c 0.528408,0.312138 1.420382,1.180976 1.982165,1.930752 1.583662,2.113609 1.866007,2.081132 5.130895,-0.590191 0.816425,-0.667997 1.708395,-1.21454 1.982155,-1.21454 0.273761,0 0.891446,-0.338646 1.372634,-0.752547 l 0.874888,-0.752547 -0.725968,-1.407453 c -0.399282,-0.774099 -1.684952,-2.828439 -2.857043,-4.565201 -1.172092,-1.736761 -2.7869,-4.184761 -3.588462,-5.44 C 54.421879,48.052571 47.608778,39.256081 46.568887,38.782275 l -0.800358,-0.364668 -0.644264,0.691537 c -0.354345,0.380345 -0.644264,0.827386 -0.644264,0.993425 0,0.16604 -0.324,0.822588 -0.72,1.458997 -0.753353,1.210709 -2.48,5.096252 -2.48,5.580843 0,0.154478 -0.216712,0.737556 -0.481583,1.295728 -0.26487,0.558173 -0.906702,2.307936 -1.426294,3.888362 -0.519591,1.580426 -1.391201,4.097502 -1.93691,5.593502 -2.205447,6.045987 -3.290626,9.273361 -4.142501,12.32 -0.492116,1.76 -1.058575,3.611367 -1.258798,4.11415 -0.200223,0.502782 -0.734995,2.734782 -1.188383,4.96 l -0.824342,4.04585 0.138233,6.72 c 0.160393,7.797346 0.50913,9.043448 2.088822,7.463756 z M 171.02834,91.120001 c -0.11814,-0.396 -0.54141,-1.296 -0.9406,-2 -0.39919,-0.704 -0.89021,-2.239144 -1.09116,-3.411431 -0.20095,-1.172287 -0.58397,-2.654626 -0.85115,-3.294086 -0.4255,-1.871666 -0.86293,-1.634212 -2.71063,-2.895198 -1.47311,-1.005341 -3.18971,-2.531269 -3.19283,-6.999285 l -0.002,-2.84 -1.04,0.254526 c -7.37222,1.804252 -5.75702,-7.35406 -7.21686,-11.054526 -0.29804,-0.662717 -0.70133,-1.227049 -0.70199,-1.357887 -0.002,-0.328452 -2.67718,1.70438 -4.8012,3.64789 -2.39812,2.194322 -2.2917,2.136037 -3.27613,1.794263 -0.6183,-0.214664 -0.97947,-0.648492 -1.22731,-1.474221 -1.75146,-4.18155 -2.90181,-1.711154 -5.00132,0.317886 -1.17962,1.117638 -2.50769,2.428069 -2.95126,2.912069 -1.12176,1.224002 -1.92689,1.106803 -4.00048,-0.582339 -2.00574,-1.633859 -2.7552,-1.70336 -3.17628,-0.294552 -0.59669,1.99627 -3.43513,8.07379 -3.78387,9.18911 -0.38865,1.242972 5.36956,1.841207 7.09665,2.1726 6.07332,1.161633 9.99189,2.182949 11.04,2.877413 0.176,0.116615 1.12581,0.385181 2.1107,0.596813 1.94645,0.418256 5.6818,1.955081 7.9693,3.278796 0.792,0.458308 2.3852,1.279848 3.54044,1.825643 1.15524,0.545795 3.23202,1.753791 4.61508,2.684435 1.38305,0.930645 2.7625,1.841703 3.06543,2.024575 0.30294,0.182871 0.74615,0.488105 0.98492,0.678296 0.23877,0.190192 0.99372,0.526202 1.67766,0.746689 0.68394,0.220487 1.74803,0.743253 2.36465,1.161703 1.40002,0.950075 1.77445,0.960263 1.50016,0.04082 z M 123.96526,72.313525 c 0.15453,-0.746267 0.51474,-1.442068 0.51474,-1.632236 0,-0.190169 0.72,-1.770586 1.6,-3.512038 0.88,-1.741453 1.6,-3.385214 1.6,-3.652803 0,-1.052235 3.14052,-9.240368 7.37993,-14.094484 2.0093,-2.766232 3.53014,-5.941608 5.58051,-8.652191 0.44024,-0.511375 1.03872,-1.433772 1.32995,-2.049772 0.29123,-0.616 0.89648,-1.696 1.345,-2.4 0.44852,-0.704 1.05347,-1.712 1.34434,-2.24 1.41753,-2.57323 2.21418,-3.792331 4.01883,-6.149944 l 1.95856,-2.558684 -1.54634,1.018384 c -1.25405,0.825892 -14.92723,12.955268 -22.19761,21.450244 -1.01234,1.182859 -2.17779,2.744 -2.72414,3.36 -5.68306,6.407553 -9.79049,12.005183 -12.21751,21.387891 l 1.70424,0.180929 c 0.93733,0.09951 3.33387,0.240859 5.32563,0.314107 2.16905,-0.119288 4.672,0.736697 4.98387,-0.769403 z"
       id="path2"
       sodipodi:nodetypes="sscssssscssssscssssssscssssscsssssssscssssssssssssssssssssscsssssssscssssscsssscssscsscsscssssscscccccssssssssssssssssssssscsccccsscssssscsssssssssssscscccsccsscssssssscsssssssscssssssscsssssssssscccsscsssssssscccsssscsssscsssssssscssssssssssssccssccssssscsssssssscssssscsssscsssssssssscsscssssscsscssssssssssssssssssccsssssssscscssscsss" />
  </g>
</svg>
