<?xml version="1.0" standalone="no"?>
<!DOCTYPE svg PUBLIC "-//W3C//DTD SVG 20010904//EN" "http://www.w3.org/TR/2001/REC-SVG-20010904/DTD/svg10.dtd">
<!-- Created using Krita: https://krita.org -->
<svg xmlns="http://www.w3.org/2000/svg" 
    xmlns:xlink="http://www.w3.org/1999/xlink"
    xmlns:krita="http://krita.org/namespaces/svg/krita"
    xmlns:sodipodi="http://sodipodi.sourceforge.net/DTD/sodipodi-0.dtd"
    width="61.44pt"
    height="61.44pt"
    viewBox="0 0 61.44 61.44">
<defs/>
<g id="group0" transform="matrix(1.00000002235174 0 0 1.00000002235174 5.2098714829014 12.1802819498356)" fill="none">
  <path id="shape0" transform="matrix(0.373619103783491 0 0 0.375739578108479 8.88178419700125e-16 -1.77635683940025e-15)" fill="none" stroke="#000000" stroke-width="3.6" stroke-linecap="round" stroke-linejoin="round" d="M0.0582612 31.652L18.4585 42.1569L36.936 31.5085L36.809 10.5759L18.4585 0L0 10.5368L0.0582612 31.652" sodipodi:nodetypes="ccccccc"/>
  <path id="shape01" transform="matrix(0.373619095993428 0 0 0.375739570274204 2.03536543135537 2.36011380222828)" fill="#a3e050" fill-rule="evenodd" stroke="#a3e050" stroke-width="3.6" stroke-linecap="round" stroke-linejoin="round" d="M0.0408571 22.2199L12.9445 29.5944L25.9023 22.1192L25.8132 7.42434L12.9445 0L0 7.39691L0.0408571 22.2199" sodipodi:nodetypes="ccccccc"/>
  <path id="shape01" transform="matrix(0.991873661491888 0.00161154750281392 -0.00161154750281392 0.991873661491888 4.44589261160297 3.40569915480634)" fill="#ffffff" fill-rule="evenodd" stroke="#ffffff" stroke-width="0.12" stroke-linecap="square" stroke-linejoin="bevel" d="M3.00239 0L0 5.1641L2.37893 5.16619L1.84271 9.09093L4.9111 3.88348L2.57731 3.85972Z" sodipodi:nodetypes="ccccccc"/>
 </g><g id="group01" transform="matrix(1.00000000057737 0 0 1.00000000057737 42.1623188319832 12.2146166916079)" fill="none">
  <path id="shape02" transform="matrix(0.373619103783491 0 0 0.375739578108479 0 -1.77635683940025e-15)" fill="none" stroke="#000000" stroke-width="3.6" stroke-linecap="round" stroke-linejoin="round" d="M0.0582612 31.652L18.4585 42.1569L36.936 31.5085L36.809 10.5759L18.4585 0L0 10.5368L0.0582612 31.652" sodipodi:nodetypes="ccccccc"/>
  <path id="shape03" transform="matrix(0.373619095993428 0 0 0.375739570274204 2.03536543135537 2.36011380222828)" fill="#a3e050" fill-rule="evenodd" stroke="#a3e050" stroke-width="3.6" stroke-linecap="round" stroke-linejoin="round" d="M0.0408571 22.2199L12.9445 29.5944L25.9023 22.1192L25.8132 7.42434L12.9445 0L0 7.39691L0.0408571 22.2199" sodipodi:nodetypes="ccccccc"/>
  <path id="shape011" transform="matrix(0.991873661491888 0.00161154750281392 -0.00161154750281392 0.991873661491888 4.44589261160298 3.40569915480634)" fill="#ffffff" fill-rule="evenodd" stroke="#ffffff" stroke-width="0.12" stroke-linecap="square" stroke-linejoin="bevel" d="M3.00239 0L0 5.1641L2.37893 5.16619L1.84271 9.09093L4.9111 3.88348L2.57731 3.85972Z" sodipodi:nodetypes="ccccccc"/>
 </g><g id="group01" transform="matrix(1.00000000057737 0 0 1.00000000057737 42.2898734199286 33.3673381553355)" fill="none">
  <path id="shape04" transform="matrix(0.373619103783491 0 0 0.375739578108479 0 -7.105427357601e-15)" fill="none" stroke="#000000" stroke-width="3.6" stroke-linecap="round" stroke-linejoin="round" d="M0.0582612 31.652L18.4585 42.1569L36.936 31.5085L36.809 10.5759L18.4585 0L0 10.5368L0.0582612 31.652" sodipodi:nodetypes="ccccccc"/>
  <path id="shape05" transform="matrix(0.373619095993428 0 0 0.375739570274204 2.03536543135537 2.36011380222828)" fill="#a3e050" fill-rule="evenodd" stroke="#a3e050" stroke-width="3.6" stroke-linecap="round" stroke-linejoin="round" d="M0.0408571 22.2199L12.9445 29.5944L25.9023 22.1192L25.8132 7.42434L12.9445 0L0 7.39691L0.0408571 22.2199" sodipodi:nodetypes="ccccccc"/>
  <path id="shape011" transform="matrix(0.991873661491888 0.00161154750281392 -0.00161154750281392 0.991873661491888 4.44589261160296 3.40569915480634)" fill="#ffffff" fill-rule="evenodd" stroke="#ffffff" stroke-width="0.12" stroke-linecap="square" stroke-linejoin="bevel" d="M3.00239 0L0 5.1641L2.37893 5.16619L1.84271 9.09093L4.9111 3.88348L2.57731 3.85972Z" sodipodi:nodetypes="ccccccc"/>
 </g><g id="group02" transform="matrix(1.00000000057737 0 0 1.00000000057737 23.740344664802 44.1326926467399)" fill="none">
  <path id="shape06" transform="matrix(0.373619103783491 0 0 0.375739578108479 0 -7.105427357601e-15)" fill="none" stroke="#000000" stroke-width="3.6" stroke-linecap="round" stroke-linejoin="round" d="M0.0582612 31.652L18.4585 42.1569L36.936 31.5085L36.809 10.5759L18.4585 0L0 10.5368L0.0582612 31.652" sodipodi:nodetypes="ccccccc"/>
  <path id="shape07" transform="matrix(0.373619095993428 0 0 0.375739570274204 2.03536543135536 2.36011380222828)" fill="#a3e050" fill-rule="evenodd" stroke="#a3e050" stroke-width="3.6" stroke-linecap="round" stroke-linejoin="round" d="M0.0408571 22.2199L12.9445 29.5944L25.9023 22.1192L25.8132 7.42434L12.9445 0L0 7.39691L0.0408571 22.2199" sodipodi:nodetypes="ccccccc"/>
  <path id="shape012" transform="matrix(0.991873661491888 0.00161154750281392 -0.00161154750281392 0.991873661491888 4.44589261160297 3.40569915480634)" fill="#ffffff" fill-rule="evenodd" stroke="#ffffff" stroke-width="0.12" stroke-linecap="square" stroke-linejoin="bevel" d="M3.00239 0L0 5.1641L2.37893 5.16619L1.84271 9.09093L4.9111 3.88348L2.57731 3.85972Z" sodipodi:nodetypes="ccccccc"/>
 </g><g id="group03" transform="matrix(1.00000000057737 0 0 1.00000000057737 5.26836224257472 33.5174787927231)" fill="none">
  <path id="shape08" transform="matrix(0.373619103783491 0 0 0.375739578108479 0 -7.105427357601e-15)" fill="none" stroke="#000000" stroke-width="3.6" stroke-linecap="round" stroke-linejoin="round" d="M0.0582612 31.652L18.4585 42.1569L36.936 31.5085L36.809 10.5759L18.4585 0L0 10.5368L0.0582612 31.652" sodipodi:nodetypes="ccccccc"/>
  <path id="shape09" transform="matrix(0.373619095993428 0 0 0.375739570274204 2.03536543135537 2.36011380222828)" fill="#a3e050" fill-rule="evenodd" stroke="#a3e050" stroke-width="3.6" stroke-linecap="round" stroke-linejoin="round" d="M0.0408571 22.2199L12.9445 29.5944L25.9023 22.1192L25.8132 7.42434L12.9445 0L0 7.39691L0.0408571 22.2199" sodipodi:nodetypes="ccccccc"/>
  <path id="shape013" transform="matrix(0.991873661491888 0.00161154750281392 -0.00161154750281392 0.991873661491888 4.44589261160297 3.40569915480634)" fill="#ffffff" fill-rule="evenodd" stroke="#ffffff" stroke-width="0.12" stroke-linecap="square" stroke-linejoin="bevel" d="M3.00239 0L0 5.1641L2.37893 5.16619L1.84271 9.09093L4.9111 3.88348L2.57731 3.85972Z" sodipodi:nodetypes="ccccccc"/>
 </g><g id="group04" transform="matrix(1.00000000057737 0 0 1.00000000057737 23.740344664802 1.53269317965802)" fill="none">
  <path id="shape010" transform="matrix(0.373619103783491 0 0 0.375739578108479 0 -3.5527136788005e-15)" fill="none" stroke="#000000" stroke-width="3.6" stroke-linecap="round" stroke-linejoin="round" d="M0.0582612 31.652L18.4585 42.1569L36.936 31.5085L36.809 10.5759L18.4585 0L0 10.5368L0.0582612 31.652" sodipodi:nodetypes="ccccccc"/>
  <path id="shape0111" transform="matrix(0.373619095993428 0 0 0.375739570274204 2.03536543135536 2.36011380222828)" fill="#a3e050" fill-rule="evenodd" stroke="#a3e050" stroke-width="3.6" stroke-linecap="round" stroke-linejoin="round" d="M0.0408571 22.2199L12.9445 29.5944L25.9023 22.1192L25.8132 7.42434L12.9445 0L0 7.39691L0.0408571 22.2199" sodipodi:nodetypes="ccccccc"/>
  <path id="shape014" transform="matrix(0.991873661491888 0.00161154750281392 -0.00161154750281392 0.991873661491888 4.44589261160296 3.40569915480634)" fill="#ffffff" fill-rule="evenodd" stroke="#ffffff" stroke-width="0.12" stroke-linecap="square" stroke-linejoin="bevel" d="M3.00239 0L0 5.1641L2.37893 5.16619L1.84271 9.09093L4.9111 3.88348L2.57731 3.85972Z" sodipodi:nodetypes="ccccccc"/>
 </g><path id="shape0121" transform="matrix(0.373619093075511 0 0 0.375739567339726 22.2600003812844 21.0000000991693)" fill="none" stroke="#000000" stroke-width="2.4" stroke-linecap="round" stroke-linejoin="round" d="M0.0714333 38.8456L22.6317 51.738L45.2868 38.6695L45.1311 12.9795L22.6317 0L0 12.9315L0.0714333 38.8456" sodipodi:nodetypes="ccccccc"/><path id="shape1" transform="matrix(1.00000002235174 0 0 1.00000002235174 30.6237431652263 17.3650015119436)" fill="none" stroke="#000000" stroke-width="1.2" stroke-linecap="square" stroke-linejoin="miter" stroke-miterlimit="2" d="M0.0788559 3.62729L0 0" sodipodi:nodetypes="cc"/><path id="shape2" transform="matrix(1.00000002235174 0 0 1.00000002235174 39.1218236019925 24.1049566590237)" fill="none" stroke="#000000" stroke-width="1.2" stroke-linecap="square" stroke-linejoin="miter" stroke-miterlimit="2" d="M0 1.76425L3.06226 0" sodipodi:nodetypes="cc"/><path id="shape3" transform="matrix(1.00000002235174 0 0 1.00000002235174 39.1800009920067 35.5219491236796)" fill="none" stroke="#000000" stroke-width="1.2" stroke-linecap="square" stroke-linejoin="miter" stroke-miterlimit="2" d="M0 0L3.10987 1.80191" sodipodi:nodetypes="cc"/><path id="shape4" transform="matrix(1.00000002235174 0 0 1.00000002235174 30.6367928959714 40.4322937769005)" fill="none" stroke="#000000" stroke-width="1.2" stroke-linecap="square" stroke-linejoin="miter" stroke-miterlimit="2" d="M0.0788559 0L0 3.69269" sodipodi:nodetypes="cc"/><path id="shape5" transform="matrix(1.00000002235174 0 0 1.00000002235174 19.0078581109365 35.5881219250148)" fill="none" stroke="#000000" stroke-width="1.2" stroke-linecap="square" stroke-linejoin="miter" stroke-miterlimit="2" d="M3.26578 0L0 1.89543" sodipodi:nodetypes="cc"/><path id="shape6" transform="matrix(1.00000002235174 0 0 1.00000002235174 18.9968218534483 24.0115757251259)" fill="none" stroke="#000000" stroke-width="1.2" stroke-linecap="square" stroke-linejoin="miter" stroke-miterlimit="2" d="M3.25013 1.8396L0 0" sodipodi:nodetypes="cc"/><g id="group0" transform="translate(23.8084005321592, 23.3088457563773)" fill="none">
  <path id="shape02" transform="matrix(1.00000002235174 0 0 1.00000002235174 0.428377105182772 0)" fill="none" stroke="#000000" stroke-width="1.32" stroke-linecap="round" stroke-linejoin="miter" stroke-miterlimit="2.03999996185303" d="M8.35019 1.03968L6.48335 0L0 3.75854L0.0445576 11.1471M6.48335 14.88L9.68443 13.0245" sodipodi:nodetypes="cccccc"/>
  <path id="shape11" transform="matrix(1.00000002235174 0 0 1.00000002235174 8.19437670321319 0.723198809905156)" fill="#000000" fill-rule="evenodd" stroke-opacity="0" stroke="#000000" stroke-width="0" stroke-linecap="square" stroke-linejoin="bevel" d="M0.0445567 0L1.24345 0.0347439L1.24462 10.4677L0 11.1563Z" sodipodi:nodetypes="ccccc"/>
  <path id="shape03" transform="matrix(0.548672307521623 0.836037501969147 0.836037501969147 -0.548672307521623 7.70473046327805 9.09135160895535)" fill="#000000" fill-rule="evenodd" stroke-opacity="0" stroke="#000000" stroke-width="0" stroke-linecap="square" stroke-linejoin="bevel" d="M0 0.886873L1.28073 0L1.49962 3.6568L0.254546 4.50591Z" sodipodi:nodetypes="ccccc"/>
  <path id="shape012" transform="matrix(0.548672289526835 0.836037474549654 0.836037474549654 -0.548672289526835 9.18693028045529 12.8310350073618)" fill="#000000" fill-rule="evenodd" stroke-opacity="0" stroke="#000000" stroke-width="0" stroke-linecap="square" stroke-linejoin="bevel" d="M0 0.839613L1.28989 0L1.70199 4.60609L0.342002 5.5353Z" sodipodi:nodetypes="ccccc"/>
  <path id="shape021" transform="matrix(1.00000000674017 0 0 1.00000000674017 12.7290158121321 2.60179894921705)" fill="#000000" fill-rule="evenodd" stroke-opacity="0" stroke="#000000" stroke-width="0" stroke-linecap="square" stroke-linejoin="bevel" d="M0.0391091 0L1.21706 0.775672L1.24462 6.1383L0 6.8268Z" sodipodi:nodetypes="ccccc"/>
  <path id="shape21" transform="matrix(1.00000002235174 0 0 1.00000002235174 0 10.6195550019816)" fill="#000000" fill-rule="evenodd" stroke-opacity="0" stroke="#000000" stroke-width="0" stroke-linecap="square" stroke-linejoin="bevel" d="M0 1.0547L0.775 0L3.0503 1.3143L1.7399 2.0635L0 1.0547M4.3023 2.0373L7.3634 3.8054L6.6727 4.924L3.0244 2.8084L4.3023 2.0373" sodipodi:nodetypes="cccccccccc"/>
  <path id="shape031" transform="matrix(-0.999999991477111 0 0 0.999999991477111 5.52530941877109 8.10952624674664)" fill="#000000" fill-rule="evenodd" stroke-opacity="0" stroke="#000000" stroke-width="0" stroke-linecap="square" stroke-linejoin="bevel" d="M0.00631094 0.674888L1.21137 0L1.24462 3.11945L0 3.80805Z" sodipodi:nodetypes="ccccc"/>
  <path id="shape041" transform="matrix(-0.548672290581568 0.836037476156799 -0.836037476156799 -0.548672290581568 6.01495564358863 9.12943027888547)" fill="#000000" fill-rule="evenodd" stroke-opacity="0" stroke="#000000" stroke-width="0" stroke-linecap="square" stroke-linejoin="bevel" d="M0 0.886873L1.28073 0L1.49962 3.6568L0.254546 4.50591Z" sodipodi:nodetypes="ccccc"/>
 </g>
</svg>
